<svg width="15" height="16" viewBox="0 0 15 16" fill="none" xmlns="http://www.w3.org/2000/svg">
<g clip-path="url(#clip0_6_144)">
<path d="M13.1688 2.48779H1.83426C0.822471 2.48779 0 3.30827 0 4.31762V12.0456C0 13.0549 0.822471 13.8754 1.83426 13.8754H13.1657C14.1775 13.8754 15 13.0549 15 12.0456V4.32071C15.0031 3.31137 14.1806 2.48779 13.1688 2.48779ZM14.1651 12.0456C14.1651 12.5936 13.7182 13.0395 13.1688 13.0395H1.83426C1.28492 13.0395 0.837989 12.5936 0.837989 12.0456V4.32071C0.837989 3.77269 1.28492 3.32685 1.83426 3.32685H13.1657C13.7151 3.32685 14.162 3.77269 14.162 4.32071V12.0456H14.1651Z" fill="#999999"/>
<path d="M9.46007 8.08586L13.1286 4.80394C13.2993 4.64914 13.3148 4.38596 13.1596 4.21258C13.0044 4.04229 12.7406 4.02681 12.5668 4.18162L7.50786 8.71128L6.5209 7.83198C6.51779 7.82888 6.51469 7.82578 6.51469 7.82269C6.49297 7.80101 6.47124 7.78244 6.44641 7.76386L2.43027 4.17852C2.25647 4.02371 1.99265 4.03919 1.83747 4.21258C1.68229 4.38596 1.69781 4.64914 1.87161 4.80394L5.58359 8.11372L1.88713 11.5659C1.71953 11.7238 1.71022 11.987 1.86851 12.1573C1.95231 12.244 2.06404 12.2904 2.17577 12.2904C2.27819 12.2904 2.38061 12.2533 2.46131 12.179L6.21364 8.67722L7.23164 9.58439C7.31233 9.65561 7.41165 9.68966 7.51097 9.68966C7.61028 9.68966 7.7127 9.65251 7.7903 9.5813L8.83623 8.64626L12.5668 12.1821C12.6475 12.2595 12.7531 12.2966 12.8555 12.2966C12.9672 12.2966 13.0758 12.2533 13.1596 12.1666C13.3179 11.9994 13.3117 11.7331 13.1441 11.5752L9.46007 8.08586Z" fill="#999999"/>
</g>
<defs>
<clipPath id="clip0_6_144">
<rect width="15" height="14.9637" fill="white" transform="translate(0 0.699707)"/>
</clipPath>
</defs>
</svg>
